<?xml version="1.0" standalone="no"?><!DOCTYPE svg PUBLIC "-//W3C//DTD SVG 1.1//EN" "http://www.w3.org/Graphics/SVG/1.1/DTD/svg11.dtd"><svg width="200" height="200" viewBox="0 0 200 200" version="1.1" xmlns="http://www.w3.org/2000/svg" xmlns:xlink="http://www.w3.org/1999/xlink"><defs><style type="text/css"><![CDATA[
@font-face { font-family: ifont; src: url("http://at.alicdn.com/t/font_1442373896_4754455.eot?#iefix") format("embedded-opentype"), url("http://at.alicdn.com/t/font_1442373896_4754455.woff") format("woff"), url("http://at.alicdn.com/t/font_1442373896_4754455.ttf") format("truetype"), url("http://at.alicdn.com/t/font_1442373896_4754455.svg#ifont") format("svg"); }

]]></style></defs><g class="transform-group"><g transform="scale(0.1953125, 0.1953125)"><path d="M953.6 505.6 531.2 70.4C524.8 64 518.4 64 512 64 505.6 64 499.2 64 492.8 70.4L70.4 505.6C64 518.4 64 537.6 70.4 544l0 0c12.8 12.8 25.6 6.4 38.4 0L512 128l403.2 416c12.8 12.8 25.6 12.8 38.4 0l0 0C960 537.6 960 518.4 953.6 505.6zM825.6 563.2c-19.2 0-32 25.6-32 25.6l0 288c0 19.2-19.2 38.4-38.4 38.4L268.8 915.2c-19.2 0-38.4-19.2-38.4-38.4 0 0 0-262.4 0-288 0-12.8 0-32-25.6-25.6-12.8 0-25.6 25.6-25.6 25.6L179.2 896c0 32 25.6 64 64 64l537.6 0c32 0 64-25.6 64-64 0 0 0-224 0-307.2C844.8 576 844.8 563.2 825.6 563.2z" fill="#7C8085"></path></g></g></svg>
