<?xml version="1.0" standalone="no"?><!DOCTYPE svg PUBLIC "-//W3C//DTD SVG 1.1//EN" "http://www.w3.org/Graphics/SVG/1.1/DTD/svg11.dtd"><svg width="200" height="200" viewBox="0 0 200 200" version="1.1" xmlns="http://www.w3.org/2000/svg" xmlns:xlink="http://www.w3.org/1999/xlink"><defs><style type="text/css"><![CDATA[
@font-face { font-family: ifont; src: url("http://at.alicdn.com/t/font_1442373896_4754455.eot?#iefix") format("embedded-opentype"), url("http://at.alicdn.com/t/font_1442373896_4754455.woff") format("woff"), url("http://at.alicdn.com/t/font_1442373896_4754455.ttf") format("truetype"), url("http://at.alicdn.com/t/font_1442373896_4754455.svg#ifont") format("svg"); }

]]></style></defs><g class="transform-group"><g transform="scale(0.1953125, 0.1953125)"><path d="M832.157205 959.391517c-76.362178-0.23536-165.571966 0.166799-292.970518 0.181125l0-46.975894c41.581024-22.223141 86.819344-259.036661 120.945583-258.117732 131.37512 26.881231 224.590128 101.865016 224.590128 244.406452C882.970498 935.932222 865.18339 959.488731 832.157205 959.391517L832.157205 959.391517zM718.594777 483.220536c-28.939099 96.553033-104.71697 165.444053-193.654558 165.444053-89.002057 0-164.826999-69.004607-193.71084-165.67532-13.308097-6.202259-29.578666-20.053732-35.656081-55.381331-7.933693-46.225811 20.580734-57.294914 20.580734-57.294914 2.051729-0.106424 4.172019 1.521656 6.299473 4.379751 4.380774-12.780071 12.286838-24.02416 21.902846-33.487695 36.386722-35.766598 103.332437-54.867632 184.15009-55.222719 73.230861-0.320295 124.437104 4.380774 176.530552 54.172807 9.162684 8.753361 17.786085 22.361287 22.457478 36.378535 2.600221-4.046153 5.201465-6.40999 7.691169-6.27696 0 0 28.855188 11.033287 20.819165 57.140395C749.648027 463.841164 732.280474 477.342666 718.594777 483.220536L718.594777 483.220536zM308.972469 316.813552 308.972469 122.401748c0 0 94.682429-58.350966 208.172203-58.350966 109.472274 0 219.557508 58.350966 219.557508 58.350966l0 194.627722c0 0-63.206554-71.429843-213.875089-71.429843C371.25907 245.599627 308.972469 316.813552 308.972469 316.813552L308.972469 316.813552zM582.228993 169.773661l0-25.393343-46.935985 0L535.293007 97.488335l-24.938995 0 0 46.891983-46.720068 0 0 25.393343 46.720068 0 0 46.850028 24.938995 0 0-46.850028L582.228993 169.773661 582.228993 169.773661zM518.243703 912.596747l0 46.975894c-127.397528-0.014326-216.607316-0.416486-292.975635-0.181125-33.013905 0.097214-50.814316-23.459295-52.559053-60.507072 0-142.541437 93.216032-217.525222 224.582965-244.406452C431.432545 653.560086 476.649376 890.373607 518.243703 912.596747L518.243703 912.596747zM518.243703 912.596747" fill="#7C8085"></path></g></g></svg>
