<?xml version="1.0" encoding="UTF-8" ?>
<!DOCTYPE svg PUBLIC "-//W3C//DTD SVG 1.1//EN" "http://www.w3.org/Graphics/SVG/1.1/DTD/svg11.dtd">
<svg width="200pt" height="200pt" viewBox="0 0 200 200" version="1.1" xmlns="http://www.w3.org/2000/svg">
<g id="#ffffffff">
<path fill="#ffffff" opacity="1.00" d=" M 180.18 6.20 C 184.53 5.19 189.43 3.94 193.58 6.27 C 197.94 8.66 199.24 14.36 198.09 18.92 C 189.92 55.25 181.74 91.58 173.53 127.90 C 172.84 130.68 171.80 133.91 169.02 135.24 C 165.34 135.71 163.30 131.90 161.85 129.15 C 156.93 118.86 151.97 108.57 147.12 98.24 C 105.01 128.76 62.95 159.35 20.79 189.80 C 17.29 191.86 13.66 195.05 9.37 194.61 C 9.19 194.26 8.81 193.55 8.62 193.19 C 9.00 188.72 12.03 185.08 14.36 181.42 C 44.56 139.67 74.87 97.99 105.08 56.24 C 94.86 51.35 84.60 46.53 74.40 41.58 C 71.71 40.11 68.22 38.39 68.02 34.90 C 69.04 31.44 72.99 30.44 76.08 29.67 C 110.78 21.84 145.49 14.04 180.18 6.20 Z" />
</g>
</svg>
