<?xml version="1.0" encoding="UTF-8" ?>
<!DOCTYPE svg PUBLIC "-//W3C//DTD SVG 1.1//EN" "http://www.w3.org/Graphics/SVG/1.1/DTD/svg11.dtd">
<svg width="75pt" height="75pt" viewBox="0 0 75 75" version="1.1" xmlns="http://www.w3.org/2000/svg">
<g id="#29c1d7ff">
<path fill="#29c1d7" opacity="1.00" d=" M 0.47 38.95 C -0.31 26.08 7.35 13.11 19.11 7.78 L 20.12 8.11 C 20.22 8.57 20.42 9.49 20.53 9.94 C 15.43 13.23 10.35 16.95 7.42 22.43 C 1.96 31.71 2.11 43.96 7.89 53.05 C 10.91 58.34 15.95 61.93 21.02 65.07 C 20.49 66.59 18.99 67.58 17.62 66.32 C 7.71 60.93 0.88 50.26 0.47 38.95 Z" />
<path fill="#29c1d7" opacity="1.00" d=" M 53.72 9.03 C 54.26 8.67 55.32 7.96 55.86 7.61 C 65.55 12.54 72.88 22.13 74.16 33.03 C 76.20 46.66 68.50 61.10 55.99 66.87 L 55.06 66.86 C 54.76 66.41 54.17 65.51 53.87 65.06 C 60.28 61.30 66.23 56.19 69.05 49.14 C 73.77 38.45 71.38 25.14 63.23 16.78 C 60.57 13.58 56.51 12.07 53.72 9.03 Z" />
<path fill="#29c1d7" opacity="1.00" d=" M 16.18 22.16 L 16.93 21.72 C 19.90 22.57 17.36 24.98 16.33 26.34 C 11.11 32.50 11.16 42.37 16.39 48.51 C 17.23 49.82 19.17 51.03 17.95 52.74 C 15.73 53.48 14.61 50.96 13.39 49.60 C 7.27 41.50 8.36 28.75 16.18 22.16 Z" />
<path fill="#29c1d7" opacity="1.00" d=" M 33.91 22.60 C 42.64 20.70 52.01 27.20 53.24 36.05 C 54.95 44.78 48.40 53.59 39.78 55.14 C 38.47 57.31 37.39 59.67 35.73 61.62 C 34.54 61.90 33.79 61.42 33.51 60.17 C 34.24 58.47 35.20 56.89 36.16 55.31 C 28.44 54.78 21.48 48.67 20.64 40.87 C 19.32 32.51 25.59 23.98 33.91 22.60 Z" />
<path fill="#29c1d7" opacity="1.00" d=" M 57.00 22.23 C 58.32 20.89 59.48 22.95 60.38 23.70 C 67.69 31.81 66.97 45.63 58.63 52.75 C 56.25 53.74 55.97 50.52 57.69 49.54 C 63.16 43.74 64.10 34.18 59.49 27.60 C 58.73 25.87 55.58 24.20 57.00 22.23 Z" />
</g>
</svg>
