<?xml version="1.0" encoding="UTF-8" ?>
<!DOCTYPE svg PUBLIC "-//W3C//DTD SVG 1.1//EN" "http://www.w3.org/Graphics/SVG/1.1/DTD/svg11.dtd">
<svg width="100pt" height="100pt" viewBox="0 0 100 100" version="1.1" xmlns="http://www.w3.org/2000/svg">
<g id="#979797f2">
<path fill="#979797" opacity="0.95" d=" M 53.27 0.00 L 57.76 0.00 C 70.61 0.51 83.19 6.74 91.05 16.97 C 96.27 23.60 99.33 31.82 100.00 40.23 L 100.00 46.56 C 97.90 62.84 84.80 74.89 70.90 82.05 C 72.07 87.56 74.13 92.96 78.13 97.07 C 70.38 97.22 62.40 94.67 56.84 89.11 C 54.89 87.37 53.74 84.94 51.87 83.15 C 48.90 82.56 45.87 82.30 42.91 81.68 C 39.57 87.23 33.56 90.27 27.31 91.19 C 24.65 96.15 19.66 99.79 13.91 99.99 C 15.60 97.42 16.75 94.54 16.97 91.46 C 8.86 88.39 1.09 81.88 0.00 72.79 L 0.00 69.16 C 0.91 61.22 6.54 55.02 12.67 50.41 C 10.23 37.59 14.37 23.84 23.22 14.30 C 30.88 5.85 41.95 0.82 53.27 0.00 M 31.68 9.69 C 21.73 16.49 15.01 27.89 14.16 39.95 C 13.19 50.66 17.07 61.77 24.81 69.29 C 31.97 76.50 42.03 80.18 52.03 80.95 C 53.59 80.68 54.07 82.35 54.80 83.30 C 58.83 89.79 66.06 93.97 73.60 94.75 C 70.79 90.58 69.60 85.66 68.65 80.80 C 79.28 75.46 89.46 67.84 94.78 56.91 C 99.81 46.77 98.55 34.44 93.47 24.59 C 87.39 12.76 75.31 4.29 62.14 2.52 C 51.56 0.87 40.43 3.54 31.68 9.69 M 2.69 75.49 C 5.04 82.95 12.18 87.60 19.18 90.16 C 18.97 92.53 18.50 94.86 17.95 97.18 C 21.70 95.76 24.06 92.52 26.12 89.30 C 31.65 88.41 37.55 86.39 40.55 81.27 C 27.39 77.49 16.22 66.73 12.78 53.38 C 5.64 57.87 0.08 66.90 2.69 75.49 Z" />
<path fill="#979797" opacity="0.95" d=" M 34.98 26.10 C 48.99 25.93 63.00 25.93 77.01 26.11 C 76.97 26.79 76.91 28.15 76.87 28.83 C 62.97 28.99 49.07 28.94 35.17 28.85 C 35.12 28.16 35.03 26.79 34.98 26.10 Z" />
<path fill="#979797" opacity="0.95" d=" M 34.91 37.74 C 47.23 37.19 59.59 37.68 71.93 37.49 C 74.12 37.60 78.10 36.68 77.09 40.27 C 64.75 40.80 52.37 40.32 40.02 40.51 C 37.83 40.41 33.90 41.30 34.91 37.74 Z" />
<path fill="#979797" opacity="0.95" d=" M 35.07 49.14 C 49.01 48.91 62.95 48.97 76.89 49.11 C 76.91 49.81 76.96 51.20 76.99 51.89 C 63.01 52.08 49.02 52.05 35.04 51.91 C 35.05 51.22 35.06 49.83 35.07 49.14 Z" />
</g>
</svg>
