<?xml version="1.0" encoding="UTF-8" ?>
<!DOCTYPE svg PUBLIC "-//W3C//DTD SVG 1.1//EN" "http://www.w3.org/Graphics/SVG/1.1/DTD/svg11.dtd">
<svg width="75pt" height="75pt" viewBox="0 0 75 75" version="1.1" xmlns="http://www.w3.org/2000/svg">
<g id="#9f9f9ffe">
<path fill="#9f9f9f" opacity="1.00" d=" M 18.24 8.15 C 19.74 6.67 21.93 9.74 19.82 10.49 C 14.67 13.60 9.90 17.61 7.09 23.04 C 1.84 32.44 2.28 44.68 8.27 53.64 C 11.03 58.28 15.44 61.47 19.88 64.36 C 21.83 65.02 19.82 68.14 18.26 66.66 C 8.32 61.54 1.28 51.15 0.53 39.95 C -0.67 27.06 6.67 13.94 18.24 8.15 Z" />
<path fill="#9f9f9f" opacity="1.00" d=" M 55.30 10.66 C 53.71 10.05 54.03 7.86 55.76 7.76 C 69.18 13.79 77.02 29.72 73.77 44.06 C 71.67 54.24 64.48 63.56 54.69 67.34 C 54.61 66.73 54.46 65.52 54.38 64.92 C 59.11 61.57 64.10 58.21 67.04 53.02 C 72.99 43.55 72.90 30.73 66.80 21.35 C 64.04 16.77 59.80 13.41 55.30 10.66 Z" />
<path fill="#9f9f9f" opacity="1.00" d=" M 16.20 22.13 L 16.94 21.75 C 19.92 22.57 17.32 25.01 16.32 26.37 C 11.09 32.52 11.17 42.42 16.42 48.53 C 17.24 49.80 19.23 51.14 17.87 52.76 C 15.67 53.44 14.58 50.90 13.36 49.56 C 7.26 41.44 8.38 28.71 16.20 22.13 Z" />
<path fill="#9f9f9f" opacity="1.00" d=" M 26.80 25.84 C 34.26 19.61 46.83 22.04 51.34 30.67 C 56.58 39.18 51.83 51.72 42.12 54.35 C 38.14 55.16 37.91 60.00 35.01 62.23 C 34.60 61.71 33.78 60.68 33.36 60.16 C 35.06 57.71 35.93 54.51 38.21 52.55 C 42.55 51.37 47.05 49.31 49.01 44.97 C 52.93 37.92 48.83 28.07 41.05 25.93 C 33.05 23.08 23.62 29.55 23.50 38.08 C 22.90 43.49 26.59 47.74 30.26 51.14 C 29.42 54.64 26.29 51.45 24.94 50.03 C 18.39 43.41 19.31 31.38 26.80 25.84 Z" />
<path fill="#9f9f9f" opacity="1.00" d=" M 57.12 22.21 C 58.34 20.92 59.48 22.96 60.34 23.65 C 67.83 31.89 67.00 46.34 58.02 53.15 C 55.11 52.26 57.39 49.79 58.55 48.41 C 63.10 43.03 63.67 34.83 60.23 28.73 C 59.08 26.73 57.27 25.15 56.37 22.99 L 57.12 22.21 Z" />
</g>
</svg>
