<?xml version="1.0" standalone="no"?><!DOCTYPE svg PUBLIC "-//W3C//DTD SVG 1.1//EN" "http://www.w3.org/Graphics/SVG/1.1/DTD/svg11.dtd"><svg width="200" height="200" viewBox="0 0 200 200" version="1.1" xmlns="http://www.w3.org/2000/svg" xmlns:xlink="http://www.w3.org/1999/xlink"><defs><style type="text/css"><![CDATA[
@font-face { font-family: ifont; src: url("http://at.alicdn.com/t/font_1442373896_4754455.eot?#iefix") format("embedded-opentype"), url("http://at.alicdn.com/t/font_1442373896_4754455.woff") format("woff"), url("http://at.alicdn.com/t/font_1442373896_4754455.ttf") format("truetype"), url("http://at.alicdn.com/t/font_1442373896_4754455.svg#ifont") format("svg"); }

]]></style></defs><g class="transform-group"><g transform="scale(0.1953125, 0.1953125)"><path d="M673.897274 774.754333c-2.744507-0.016373-5.349845 0.435928-7.631818 1.372254l-0.074701 0c-1.824555 0.7552-3.568269 1.972934-5.078669 3.632737l-112.040772 123.124202-0.074701 0c-1.239224 1.355881-2.547009 2.669806-3.860934 3.845585-10.402931 9.301853-23.938202 14.019295-37.32407 14.034645-13.450337 0.016373-27.000957-4.659113-37.419238-14.125719l-0.149403-0.154519c-1.058099-0.978281-2.2656-2.212388-3.648087-3.75451L358.170472 781.599228l-0.074701 0c-1.282203-1.430582-2.924609-2.488681-4.765537-3.180436-2.653433-1.010003-5.700839-1.537006-8.849552-1.675152l-0.074701 0c-29.426193-1.414209-50.51858-1.505283-73.089645-1.579985l-0.074701 0c-28.852118-0.106424-60.149938-0.24457-110.653169-2.850931l0 0.031722c-27.511587 0-52.582589-11.322883-70.749344-29.474288l-0.048095 0.042979c-18.146289-18.151405-29.426193-43.221384-29.426193-70.792323L60.364833 226.080062c0-27.495214 11.291161-52.566216 29.426193-70.717621l0.048095-0.031722 0.031722-0.042979c18.151405-18.135032 43.221384-29.426193 70.717621-29.426193l699.41546 0c27.569916 0 52.640917 11.274788 70.792323 29.426193l-0.042979 0.042979c18.146289 18.167778 29.469172 43.237757 29.469172 70.749344l0 446.040752c0 27.569916-11.274788 52.640917-29.426193 70.792323s-43.221384 29.43131-70.792323 29.43131l0-0.063445c-44.76453 0.877997-83.188654 1.494027-113.625874 1.898233C709.082634 774.679631 684.012655 774.844384 673.897274 774.754333L673.897274 774.754333zM740.045833 427.219081c-21.150716 0-38.292118 17.141402-38.292118 38.292118s17.140379 38.292118 38.292118 38.292118 38.292118-17.141402 38.292118-38.292118S761.197572 427.219081 740.045833 427.219081L740.045833 427.219081zM510.295172 427.219081c-21.150716 0-38.292118 17.141402-38.292118 38.292118s17.141402 38.292118 38.292118 38.292118 38.292118-17.141402 38.292118-38.292118S531.445888 427.219081 510.295172 427.219081L510.295172 427.219081zM280.544511 427.219081c-21.150716 0-38.292118 17.141402-38.292118 38.292118s17.141402 38.292118 38.292118 38.292118 38.292118-17.141402 38.292118-38.292118S301.695227 427.219081 280.544511 427.219081L280.544511 427.219081zM651.629107 740.850152l-0.016373-0.031722c6.983041-2.892887 14.651698-4.26514 22.586414-4.201695 9.854439 0.074701 34.643008-0.090051 71.727625-0.574075 29.968545-0.393973 68.308759-1.026376 113.700575-1.914606l0.3776-0.074701c17.002232 0 32.483832-6.983041 43.716664-18.21485 11.231809-11.226692 18.209734-26.713408 18.209734-43.716664L921.931347 226.080062c0-17.050328-6.951319-32.5483-18.135032-43.716664l-0.074701 0c-11.231809-11.231809-26.713408-18.209734-43.716664-18.209734L160.590512 164.153664c-17.050328 0-32.5483 6.946202-43.721781 18.135032l-0.074701 0.074701c-11.184737 11.168364-18.135032 26.666336-18.135032 43.716664l0 446.040752c0 17.002232 6.983041 32.489972 18.209734 43.716664l0 0.079818c11.17348 11.184737 26.671453 18.135032 43.721781 18.135032l0.962931 0.074701c51.27378 2.669806 81.72635 2.802836 109.764939 2.892887l0.079818 0c23.517623 0.090051 45.508473 0.181125 74.818009 1.585101 7.1744 0.345877 14.21577 1.563612 20.714787 4.052293 7.339152 2.802836 14.06125 7.147794 19.74674 13.524015l-0.042979 0.031722 108.392686 121.098056 1.084705 1.042749c3.13234 2.850931 7.413853 4.26514 11.700483 4.26514 4.356214 0 8.711406-1.478677 11.908214-4.323469l1.116427-1.101077-0.048095-0.031722 112.040772-123.124202C638.195144 748.162698 644.545782 743.791134 651.629107 740.850152z" fill="#999"></path></g></g></svg>