<?xml version="1.0" encoding="UTF-8" ?>
<!DOCTYPE svg PUBLIC "-//W3C//DTD SVG 1.1//EN" "http://www.w3.org/Graphics/SVG/1.1/DTD/svg11.dtd">
<svg width="100pt" height="100pt" viewBox="0 0 100 100" version="1.1" xmlns="http://www.w3.org/2000/svg">
<g id="#5ccae7ff">
<path fill="#5ccae7" opacity="1.00" d=" M 30.93 28.54 C 46.09 24.31 62.84 25.27 77.15 31.95 C 85.40 35.81 92.86 41.86 97.10 50.05 C 90.89 61.14 79.03 67.80 67.01 70.84 C 51.44 74.62 34.39 73.49 19.90 66.40 C 12.54 62.76 5.91 57.28 1.90 50.02 C 7.72 38.89 19.17 31.93 30.93 28.54 M 45.55 28.73 C 37.06 30.65 30.20 38.21 29.26 46.89 C 28.19 54.76 32.04 63.00 38.71 67.29 C 45.24 71.68 54.21 72.02 61.05 68.13 C 66.95 64.91 71.15 58.74 71.90 52.05 C 72.76 45.34 70.16 38.31 65.13 33.80 C 59.98 28.99 52.38 27.05 45.55 28.73 Z" />
<path fill="#5ccae7" opacity="1.00" d=" M 46.40 33.71 C 55.35 31.11 65.57 37.65 66.78 46.93 C 68.50 55.95 61.14 65.22 52.01 65.74 C 43.62 66.69 35.30 60.14 34.32 51.74 C 33.03 43.79 38.60 35.59 46.40 33.71 M 51.33 35.49 C 46.84 37.97 47.09 45.28 51.77 47.42 C 56.16 49.99 62.29 46.19 61.91 41.12 C 61.99 36.01 55.52 32.63 51.33 35.49 Z" />
</g>
</svg>
