<?xml version="1.0" standalone="no"?><!DOCTYPE svg PUBLIC "-//W3C//DTD SVG 1.1//EN" "http://www.w3.org/Graphics/SVG/1.1/DTD/svg11.dtd"><svg width="200" height="200" viewBox="0 0 200 200" version="1.1" xmlns="http://www.w3.org/2000/svg" xmlns:xlink="http://www.w3.org/1999/xlink"><defs><style type="text/css"><![CDATA[
@font-face { font-family: ifont; src: url("http://at.alicdn.com/t/font_1442373896_4754455.eot?#iefix") format("embedded-opentype"), url("http://at.alicdn.com/t/font_1442373896_4754455.woff") format("woff"), url("http://at.alicdn.com/t/font_1442373896_4754455.ttf") format("truetype"), url("http://at.alicdn.com/t/font_1442373896_4754455.svg#ifont") format("svg"); }

]]></style></defs><g class="transform-group"><g transform="scale(0.1953125, 0.1953125)"><path d="M785.28 496 512 913.344 238.688 496ZM512 929.344c-5.376 0-10.432-2.72-13.376-7.232L225.312 504.768c-3.232-4.928-3.488-11.2-0.672-16.384S232.8 480 238.688 480L785.28 480c5.888 0 11.296 3.232 14.048 8.384 2.816 5.184 2.528 11.456-0.672 16.384l-273.28 417.344C522.432 926.624 517.376 929.344 512 929.344zM268.288 512 512 884.128 755.68 512 268.288 512z" fill="#000000"></path></g></g></svg>