<?xml version="1.0" encoding="UTF-8" ?>
<!DOCTYPE svg PUBLIC "-//W3C//DTD SVG 1.1//EN" "http://www.w3.org/Graphics/SVG/1.1/DTD/svg11.dtd">
<svg width="90pt" height="90pt" viewBox="0 0 90 90" version="1.1" xmlns="http://www.w3.org/2000/svg">
<g id="#ffd666ff">
<path fill="#ffd666" opacity="1.00" d=" M 56.36 2.39 C 61.25 2.21 66.15 2.36 71.05 2.31 C 76.06 2.06 80.78 6.27 81.51 11.14 C 81.64 17.69 81.51 24.24 81.53 30.79 C 81.48 33.32 79.67 35.27 77.95 36.91 C 66.50 48.17 55.15 59.54 43.61 70.70 C 39.62 75.40 31.48 74.92 27.46 70.50 C 21.59 65.05 15.63 59.69 9.83 54.18 C 7.56 52.07 6.46 48.56 7.70 45.64 C 8.50 43.34 10.46 41.76 12.11 40.07 C 22.82 29.46 33.58 18.89 44.29 8.27 C 47.48 5.00 51.75 2.68 56.36 2.39 M 66.38 8.47 C 63.08 9.76 62.44 14.22 63.64 17.19 C 64.83 20.65 69.20 21.18 72.26 20.27 C 76.80 18.80 77.24 11.88 73.85 9.04 C 71.64 7.68 68.78 7.48 66.38 8.47 Z" />
</g>
<g id="#ffad32ff">
<path fill="#ffad32" opacity="1.00" d=" M 38.11 78.09 C 52.66 64.42 66.30 49.77 80.89 36.17 C 71.93 51.96 63.88 68.25 55.20 84.20 C 52.92 88.21 47.37 90.29 43.19 88.00 C 35.84 84.31 28.47 80.68 21.11 77.01 C 19.09 76.05 16.96 74.46 16.81 72.02 C 16.85 69.81 17.80 67.75 18.40 65.66 C 23.27 69.36 26.95 74.49 31.84 78.21 C 33.63 79.69 36.43 79.79 38.11 78.09 Z" />
</g>
</svg>
